<?xml version="1.0" standalone="no"?><!DOCTYPE svg PUBLIC "-//W3C//DTD SVG 1.1//EN" "http://www.w3.org/Graphics/SVG/1.1/DTD/svg11.dtd"><svg class="icon" height="512" viewBox="0 0 1264 1024" version="1.1" xmlns="http://www.w3.org/2000/svg"><path d="M632.190279 250.97001l229.791107 229.760397H724.104604v245.071686H540.275954v-245.071686H402.399173L632.190279 250.97001z m300.221551 475.680298l59.852642 59.631322 41.828335 41.646196c-93.62558 118.922722-238.746606 195.328794-401.832637 195.328794-281.643417 0-510.038834-227.730399-511.205792-509.072016H0.319801l191.421287-191.037948 191.762267 191.036889H263.072695c1.166958 202.597394 166.307342 367.072761 369.187475 367.072761 123.593729 0 233.089721-61.081018 300.152719-154.605998z m211.05519-211.862105l41.447114-0.039181h78.963425L1072.457332 705.788029 880.692947 514.749022l75.763293 0.04024s44.990345-0.02012 44.990345-0.04024c0-0.925518 0.08048-1.830916 0.08048-2.737374 0-203.60551-165.663504-369.267954-369.267954-369.267954-124.941766 0-235.483996 62.429055-302.345796 157.687528l-58.221865-58.001605-43.54065-43.419929C321.635541 78.438188 467.846221 0.722201 632.26017 0.722201c282.367735 0 511.26721 228.899475 511.26721 511.28733 0 0.905398-0.06036 1.810796-0.06036 2.778672z" /></svg>